<mxfile host="app.diagrams.net" agent="Mozilla/5.0 (Windows NT 10.0; Win64; x64) AppleWebKit/537.36 (KHTML, like Gecko) Chrome/127.0.0.0 Safari/537.36" version="24.7.6">
  <diagram name="PÃ¡gina-1" id="pk_rUgYz2onYEYvTMF-V">
    <mxGraphModel dx="1313" dy="1822" grid="1" gridSize="10" guides="1" tooltips="1" connect="1" arrows="1" fold="1" page="1" pageScale="1" pageWidth="827" pageHeight="1169" math="0" shadow="0">
      <root>
        <mxCell id="0" />
        <mxCell id="1" parent="0" />
        <mxCell id="dJZHMLapRTn88EUjOpeF-25" style="edgeStyle=orthogonalEdgeStyle;rounded=0;orthogonalLoop=1;jettySize=auto;html=1;" parent="1" source="dJZHMLapRTn88EUjOpeF-10" target="dJZHMLapRTn88EUjOpeF-15" edge="1">
          <mxGeometry relative="1" as="geometry" />
        </mxCell>
        <mxCell id="dJZHMLapRTn88EUjOpeF-10" value="Client" style="sketch=0;outlineConnect=0;fontColor=#232F3E;gradientColor=none;fillColor=#232F3D;strokeColor=none;dashed=0;verticalLabelPosition=bottom;verticalAlign=top;align=center;html=1;fontSize=12;fontStyle=0;aspect=fixed;pointerEvents=1;shape=mxgraph.aws4.user;" parent="1" vertex="1">
          <mxGeometry x="90" y="525" width="78" height="78" as="geometry" />
        </mxCell>
        <mxCell id="dJZHMLapRTn88EUjOpeF-15" value="Front" style="sketch=0;outlineConnect=0;fontColor=#232F3E;gradientColor=none;fillColor=#232F3D;strokeColor=none;dashed=0;verticalLabelPosition=bottom;verticalAlign=top;align=center;html=1;fontSize=12;fontStyle=0;aspect=fixed;pointerEvents=1;shape=mxgraph.aws4.client;" parent="1" vertex="1">
          <mxGeometry x="300" y="526" width="78" height="76" as="geometry" />
        </mxCell>
        <mxCell id="dJZHMLapRTn88EUjOpeF-43" value="AWS Cloud" style="points=[[0,0],[0.25,0],[0.5,0],[0.75,0],[1,0],[1,0.25],[1,0.5],[1,0.75],[1,1],[0.75,1],[0.5,1],[0.25,1],[0,1],[0,0.75],[0,0.5],[0,0.25]];outlineConnect=0;gradientColor=none;html=1;whiteSpace=wrap;fontSize=12;fontStyle=0;container=1;pointerEvents=0;collapsible=0;recursiveResize=0;shape=mxgraph.aws4.group;grIcon=mxgraph.aws4.group_aws_cloud_alt;strokeColor=#232F3E;fillColor=none;verticalAlign=top;align=left;spacingLeft=30;fontColor=#232F3E;dashed=0;" parent="1" vertex="1">
          <mxGeometry x="520" y="-1" width="1430" height="1110" as="geometry" />
        </mxCell>
        <mxCell id="dJZHMLapRTn88EUjOpeF-46" value="Region" style="points=[[0,0],[0.25,0],[0.5,0],[0.75,0],[1,0],[1,0.25],[1,0.5],[1,0.75],[1,1],[0.75,1],[0.5,1],[0.25,1],[0,1],[0,0.75],[0,0.5],[0,0.25]];outlineConnect=0;gradientColor=none;html=1;whiteSpace=wrap;fontSize=12;fontStyle=0;container=1;pointerEvents=0;collapsible=0;recursiveResize=0;shape=mxgraph.aws4.group;grIcon=mxgraph.aws4.group_region;strokeColor=#00A4A6;fillColor=none;verticalAlign=top;align=left;spacingLeft=30;fontColor=#147EBA;dashed=1;" parent="dJZHMLapRTn88EUjOpeF-43" vertex="1">
          <mxGeometry x="20" y="30" width="1330" height="1070" as="geometry" />
        </mxCell>
        <mxCell id="dJZHMLapRTn88EUjOpeF-48" value="VPC" style="points=[[0,0],[0.25,0],[0.5,0],[0.75,0],[1,0],[1,0.25],[1,0.5],[1,0.75],[1,1],[0.75,1],[0.5,1],[0.25,1],[0,1],[0,0.75],[0,0.5],[0,0.25]];outlineConnect=0;gradientColor=none;html=1;whiteSpace=wrap;fontSize=12;fontStyle=0;container=1;pointerEvents=0;collapsible=0;recursiveResize=0;shape=mxgraph.aws4.group;grIcon=mxgraph.aws4.group_vpc2;strokeColor=#8C4FFF;fillColor=none;verticalAlign=top;align=left;spacingLeft=30;fontColor=#AAB7B8;dashed=0;" parent="dJZHMLapRTn88EUjOpeF-46" vertex="1">
          <mxGeometry x="30" y="30" width="1270" height="1030" as="geometry" />
        </mxCell>
        <mxCell id="dJZHMLapRTn88EUjOpeF-50" value="Private subnet" style="points=[[0,0],[0.25,0],[0.5,0],[0.75,0],[1,0],[1,0.25],[1,0.5],[1,0.75],[1,1],[0.75,1],[0.5,1],[0.25,1],[0,1],[0,0.75],[0,0.5],[0,0.25]];outlineConnect=0;gradientColor=none;html=1;whiteSpace=wrap;fontSize=12;fontStyle=0;container=1;pointerEvents=0;collapsible=0;recursiveResize=0;shape=mxgraph.aws4.group;grIcon=mxgraph.aws4.group_security_group;grStroke=0;strokeColor=#00A4A6;fillColor=#E6F6F7;verticalAlign=top;align=left;spacingLeft=30;fontColor=#147EBA;dashed=0;" parent="dJZHMLapRTn88EUjOpeF-48" vertex="1">
          <mxGeometry x="210" y="30" width="1030" height="990" as="geometry" />
        </mxCell>
        <mxCell id="dJZHMLapRTn88EUjOpeF-23" value="DynamoDB&lt;br&gt;Client" style="outlineConnect=0;dashed=0;verticalLabelPosition=bottom;verticalAlign=top;align=center;html=1;shape=mxgraph.aws3.dynamo_db;fillColor=#2E73B8;gradientColor=none;" parent="dJZHMLapRTn88EUjOpeF-50" vertex="1">
          <mxGeometry x="320" y="58.5" width="72" height="81" as="geometry" />
        </mxCell>
        <mxCell id="dJZHMLapRTn88EUjOpeF-36" value="Application Load Balancer&lt;br&gt;Order-API" style="outlineConnect=0;dashed=0;verticalLabelPosition=bottom;verticalAlign=top;align=center;html=1;shape=mxgraph.aws3.application_load_balancer;fillColor=#F58536;gradientColor=none;" parent="dJZHMLapRTn88EUjOpeF-50" vertex="1">
          <mxGeometry x="80" y="439" width="69" height="72" as="geometry" />
        </mxCell>
        <mxCell id="dJZHMLapRTn88EUjOpeF-84" value="&lt;span style=&quot;font-size: 10px; font-weight: 700; text-wrap: wrap;&quot;&gt;Auth Lambda&lt;/span&gt;&lt;br style=&quot;font-size: 10px; font-weight: 700; text-wrap: wrap;&quot;&gt;&lt;span style=&quot;font-size: 10px; font-weight: 700; text-wrap: wrap;&quot;&gt;Authorize Client&lt;/span&gt;" style="sketch=0;points=[[0,0,0],[0.25,0,0],[0.5,0,0],[0.75,0,0],[1,0,0],[0,1,0],[0.25,1,0],[0.5,1,0],[0.75,1,0],[1,1,0],[0,0.25,0],[0,0.5,0],[0,0.75,0],[1,0.25,0],[1,0.5,0],[1,0.75,0]];outlineConnect=0;fontColor=#232F3E;fillColor=#ED7100;strokeColor=#ffffff;dashed=0;verticalLabelPosition=bottom;verticalAlign=top;align=center;html=1;fontSize=12;fontStyle=0;aspect=fixed;shape=mxgraph.aws4.resourceIcon;resIcon=mxgraph.aws4.lambda;" parent="dJZHMLapRTn88EUjOpeF-50" vertex="1">
          <mxGeometry x="97" y="60" width="78" height="78" as="geometry" />
        </mxCell>
        <mxCell id="dJZHMLapRTn88EUjOpeF-91" style="edgeStyle=orthogonalEdgeStyle;rounded=0;orthogonalLoop=1;jettySize=auto;html=1;entryX=0;entryY=0.5;entryDx=0;entryDy=0;entryPerimeter=0;" parent="dJZHMLapRTn88EUjOpeF-50" source="dJZHMLapRTn88EUjOpeF-84" target="dJZHMLapRTn88EUjOpeF-23" edge="1">
          <mxGeometry relative="1" as="geometry" />
        </mxCell>
        <mxCell id="dJZHMLapRTn88EUjOpeF-92" value="ECS Cluster" style="fillColor=none;strokeColor=#5A6C86;dashed=1;verticalAlign=top;fontStyle=0;fontColor=#5A6C86;whiteSpace=wrap;html=1;" parent="dJZHMLapRTn88EUjOpeF-50" vertex="1">
          <mxGeometry x="240" y="195" width="410" height="560" as="geometry" />
        </mxCell>
        <mxCell id="dJZHMLapRTn88EUjOpeF-93" value="" style="sketch=0;points=[[0,0,0],[0.25,0,0],[0.5,0,0],[0.75,0,0],[1,0,0],[0,1,0],[0.25,1,0],[0.5,1,0],[0.75,1,0],[1,1,0],[0,0.25,0],[0,0.5,0],[0,0.75,0],[1,0.25,0],[1,0.5,0],[1,0.75,0]];outlineConnect=0;fontColor=#232F3E;fillColor=#ED7100;strokeColor=#ffffff;dashed=0;verticalLabelPosition=bottom;verticalAlign=top;align=center;html=1;fontSize=12;fontStyle=0;aspect=fixed;shape=mxgraph.aws4.resourceIcon;resIcon=mxgraph.aws4.ecs;movable=1;resizable=1;rotatable=1;deletable=1;editable=1;locked=0;connectable=1;" parent="dJZHMLapRTn88EUjOpeF-50" vertex="1">
          <mxGeometry x="240" y="195" width="35" height="35" as="geometry" />
        </mxCell>
        <mxCell id="dJZHMLapRTn88EUjOpeF-95" value="" style="sketch=0;outlineConnect=0;fontColor=#232F3E;gradientColor=none;fillColor=#ED7100;strokeColor=none;dashed=0;verticalLabelPosition=bottom;verticalAlign=top;align=center;html=1;fontSize=12;fontStyle=0;aspect=fixed;pointerEvents=1;shape=mxgraph.aws4.ecs_service;" parent="dJZHMLapRTn88EUjOpeF-50" vertex="1">
          <mxGeometry x="270" y="240" width="22.75" height="28" as="geometry" />
        </mxCell>
        <mxCell id="dJZHMLapRTn88EUjOpeF-112" value="ECR" style="sketch=0;points=[[0,0,0],[0.25,0,0],[0.5,0,0],[0.75,0,0],[1,0,0],[0,1,0],[0.25,1,0],[0.5,1,0],[0.75,1,0],[1,1,0],[0,0.25,0],[0,0.5,0],[0,0.75,0],[1,0.25,0],[1,0.5,0],[1,0.75,0]];outlineConnect=0;fontColor=#232F3E;fillColor=#ED7100;strokeColor=#ffffff;dashed=0;verticalLabelPosition=bottom;verticalAlign=top;align=center;html=1;fontSize=12;fontStyle=0;aspect=fixed;shape=mxgraph.aws4.resourceIcon;resIcon=mxgraph.aws4.ecr;" parent="dJZHMLapRTn88EUjOpeF-50" vertex="1">
          <mxGeometry x="710" y="81" width="78" height="78" as="geometry" />
        </mxCell>
        <mxCell id="dJZHMLapRTn88EUjOpeF-121" value="Cloud Watch" style="sketch=0;points=[[0,0,0],[0.25,0,0],[0.5,0,0],[0.75,0,0],[1,0,0],[0,1,0],[0.25,1,0],[0.5,1,0],[0.75,1,0],[1,1,0],[0,0.25,0],[0,0.5,0],[0,0.75,0],[1,0.25,0],[1,0.5,0],[1,0.75,0]];points=[[0,0,0],[0.25,0,0],[0.5,0,0],[0.75,0,0],[1,0,0],[0,1,0],[0.25,1,0],[0.5,1,0],[0.75,1,0],[1,1,0],[0,0.25,0],[0,0.5,0],[0,0.75,0],[1,0.25,0],[1,0.5,0],[1,0.75,0]];outlineConnect=0;fontColor=#232F3E;fillColor=#E7157B;strokeColor=#ffffff;dashed=0;verticalLabelPosition=bottom;verticalAlign=top;align=center;html=1;fontSize=12;fontStyle=0;aspect=fixed;shape=mxgraph.aws4.resourceIcon;resIcon=mxgraph.aws4.cloudwatch_2;" parent="dJZHMLapRTn88EUjOpeF-50" vertex="1">
          <mxGeometry x="406" y="851" width="78" height="78" as="geometry" />
        </mxCell>
        <mxCell id="G4pOQ-Tjqg--1dSDqINS-6" style="edgeStyle=orthogonalEdgeStyle;rounded=0;orthogonalLoop=1;jettySize=auto;html=1;" parent="dJZHMLapRTn88EUjOpeF-50" source="G4pOQ-Tjqg--1dSDqINS-2" target="G4pOQ-Tjqg--1dSDqINS-5" edge="1">
          <mxGeometry relative="1" as="geometry" />
        </mxCell>
        <mxCell id="G4pOQ-Tjqg--1dSDqINS-2" value="SNS&lt;br&gt;order-client-notification.fifo" style="sketch=0;points=[[0,0,0],[0.25,0,0],[0.5,0,0],[0.75,0,0],[1,0,0],[0,1,0],[0.25,1,0],[0.5,1,0],[0.75,1,0],[1,1,0],[0,0.25,0],[0,0.5,0],[0,0.75,0],[1,0.25,0],[1,0.5,0],[1,0.75,0]];outlineConnect=0;fontColor=#232F3E;fillColor=#E7157B;strokeColor=#ffffff;dashed=0;verticalLabelPosition=bottom;verticalAlign=top;align=center;html=1;fontSize=12;fontStyle=0;aspect=fixed;shape=mxgraph.aws4.resourceIcon;resIcon=mxgraph.aws4.sns;" parent="dJZHMLapRTn88EUjOpeF-50" vertex="1">
          <mxGeometry x="710" y="581" width="78" height="78" as="geometry" />
        </mxCell>
        <mxCell id="G4pOQ-Tjqg--1dSDqINS-5" value="SQS&lt;br&gt;order-client-notification-queue.fifo" style="sketch=0;points=[[0,0,0],[0.25,0,0],[0.5,0,0],[0.75,0,0],[1,0,0],[0,1,0],[0.25,1,0],[0.5,1,0],[0.75,1,0],[1,1,0],[0,0.25,0],[0,0.5,0],[0,0.75,0],[1,0.25,0],[1,0.5,0],[1,0.75,0]];outlineConnect=0;fontColor=#232F3E;fillColor=#E7157B;strokeColor=#ffffff;dashed=0;verticalLabelPosition=bottom;verticalAlign=top;align=center;html=1;fontSize=12;fontStyle=0;aspect=fixed;shape=mxgraph.aws4.resourceIcon;resIcon=mxgraph.aws4.sqs;" parent="dJZHMLapRTn88EUjOpeF-50" vertex="1">
          <mxGeometry x="895" y="581" width="78" height="78" as="geometry" />
        </mxCell>
        <mxCell id="zrjuf5tbtKIcg7E3_-A5-1" value="RDS&lt;br&gt;Order (MySQL)" style="outlineConnect=0;dashed=0;verticalLabelPosition=bottom;verticalAlign=top;align=center;html=1;shape=mxgraph.aws3.rds;fillColor=#2E73B8;gradientColor=none;" vertex="1" parent="dJZHMLapRTn88EUjOpeF-50">
          <mxGeometry x="707" y="240" width="72" height="81" as="geometry" />
        </mxCell>
        <mxCell id="zrjuf5tbtKIcg7E3_-A5-5" style="edgeStyle=orthogonalEdgeStyle;rounded=0;orthogonalLoop=1;jettySize=auto;html=1;" edge="1" parent="dJZHMLapRTn88EUjOpeF-50" source="zrjuf5tbtKIcg7E3_-A5-6" target="zrjuf5tbtKIcg7E3_-A5-7">
          <mxGeometry relative="1" as="geometry" />
        </mxCell>
        <mxCell id="zrjuf5tbtKIcg7E3_-A5-6" value="SNS&lt;br&gt;order.fifo" style="sketch=0;points=[[0,0,0],[0.25,0,0],[0.5,0,0],[0.75,0,0],[1,0,0],[0,1,0],[0.25,1,0],[0.5,1,0],[0.75,1,0],[1,1,0],[0,0.25,0],[0,0.5,0],[0,0.75,0],[1,0.25,0],[1,0.5,0],[1,0.75,0]];outlineConnect=0;fontColor=#232F3E;fillColor=#E7157B;strokeColor=#ffffff;dashed=0;verticalLabelPosition=bottom;verticalAlign=top;align=center;html=1;fontSize=12;fontStyle=0;aspect=fixed;shape=mxgraph.aws4.resourceIcon;resIcon=mxgraph.aws4.sns;" vertex="1" parent="dJZHMLapRTn88EUjOpeF-50">
          <mxGeometry x="707" y="436" width="78" height="78" as="geometry" />
        </mxCell>
        <mxCell id="zrjuf5tbtKIcg7E3_-A5-7" value="SQS&lt;br&gt;order-queue.fifo" style="sketch=0;points=[[0,0,0],[0.25,0,0],[0.5,0,0],[0.75,0,0],[1,0,0],[0,1,0],[0.25,1,0],[0.5,1,0],[0.75,1,0],[1,1,0],[0,0.25,0],[0,0.5,0],[0,0.75,0],[1,0.25,0],[1,0.5,0],[1,0.75,0]];outlineConnect=0;fontColor=#232F3E;fillColor=#E7157B;strokeColor=#ffffff;dashed=0;verticalLabelPosition=bottom;verticalAlign=top;align=center;html=1;fontSize=12;fontStyle=0;aspect=fixed;shape=mxgraph.aws4.resourceIcon;resIcon=mxgraph.aws4.sqs;" vertex="1" parent="dJZHMLapRTn88EUjOpeF-50">
          <mxGeometry x="895" y="436" width="78" height="78" as="geometry" />
        </mxCell>
        <mxCell id="zrjuf5tbtKIcg7E3_-A5-3" value="SNS&lt;br&gt;order-kitchen-notification.fifo" style="sketch=0;points=[[0,0,0],[0.25,0,0],[0.5,0,0],[0.75,0,0],[1,0,0],[0,1,0],[0.25,1,0],[0.5,1,0],[0.75,1,0],[1,1,0],[0,0.25,0],[0,0.5,0],[0,0.75,0],[1,0.25,0],[1,0.5,0],[1,0.75,0]];outlineConnect=0;fontColor=#232F3E;fillColor=#E7157B;strokeColor=#ffffff;dashed=0;verticalLabelPosition=bottom;verticalAlign=top;align=center;html=1;fontSize=12;fontStyle=0;aspect=fixed;shape=mxgraph.aws4.resourceIcon;resIcon=mxgraph.aws4.sns;" vertex="1" parent="dJZHMLapRTn88EUjOpeF-50">
          <mxGeometry x="710" y="741" width="78" height="78" as="geometry" />
        </mxCell>
        <mxCell id="zrjuf5tbtKIcg7E3_-A5-2" style="edgeStyle=orthogonalEdgeStyle;rounded=0;orthogonalLoop=1;jettySize=auto;html=1;" edge="1" parent="dJZHMLapRTn88EUjOpeF-50" source="zrjuf5tbtKIcg7E3_-A5-3" target="zrjuf5tbtKIcg7E3_-A5-4">
          <mxGeometry relative="1" as="geometry" />
        </mxCell>
        <mxCell id="zrjuf5tbtKIcg7E3_-A5-4" value="SQS&lt;br&gt;order-kitchen-notification-queue.fifo" style="sketch=0;points=[[0,0,0],[0.25,0,0],[0.5,0,0],[0.75,0,0],[1,0,0],[0,1,0],[0.25,1,0],[0.5,1,0],[0.75,1,0],[1,1,0],[0,0.25,0],[0,0.5,0],[0,0.75,0],[1,0.25,0],[1,0.5,0],[1,0.75,0]];outlineConnect=0;fontColor=#232F3E;fillColor=#E7157B;strokeColor=#ffffff;dashed=0;verticalLabelPosition=bottom;verticalAlign=top;align=center;html=1;fontSize=12;fontStyle=0;aspect=fixed;shape=mxgraph.aws4.resourceIcon;resIcon=mxgraph.aws4.sqs;" vertex="1" parent="dJZHMLapRTn88EUjOpeF-50">
          <mxGeometry x="895" y="741" width="78" height="78" as="geometry" />
        </mxCell>
        <mxCell id="dJZHMLapRTn88EUjOpeF-49" value="Public subnet" style="points=[[0,0],[0.25,0],[0.5,0],[0.75,0],[1,0],[1,0.25],[1,0.5],[1,0.75],[1,1],[0.75,1],[0.5,1],[0.25,1],[0,1],[0,0.75],[0,0.5],[0,0.25]];outlineConnect=0;gradientColor=none;html=1;whiteSpace=wrap;fontSize=12;fontStyle=0;container=1;pointerEvents=0;collapsible=0;recursiveResize=0;shape=mxgraph.aws4.group;grIcon=mxgraph.aws4.group_security_group;grStroke=0;strokeColor=#7AA116;fillColor=#F2F6E8;verticalAlign=top;align=left;spacingLeft=30;fontColor=#248814;dashed=0;" parent="dJZHMLapRTn88EUjOpeF-48" vertex="1">
          <mxGeometry x="40" y="30" width="150" height="990" as="geometry" />
        </mxCell>
        <mxCell id="dJZHMLapRTn88EUjOpeF-12" value="API Gateway" style="sketch=0;points=[[0,0,0],[0.25,0,0],[0.5,0,0],[0.75,0,0],[1,0,0],[0,1,0],[0.25,1,0],[0.5,1,0],[0.75,1,0],[1,1,0],[0,0.25,0],[0,0.5,0],[0,0.75,0],[1,0.25,0],[1,0.5,0],[1,0.75,0]];outlineConnect=0;fontColor=#232F3E;fillColor=#E7157B;strokeColor=#ffffff;dashed=0;verticalLabelPosition=bottom;verticalAlign=top;align=center;html=1;fontSize=12;fontStyle=0;aspect=fixed;shape=mxgraph.aws4.resourceIcon;resIcon=mxgraph.aws4.api_gateway;" parent="dJZHMLapRTn88EUjOpeF-49" vertex="1">
          <mxGeometry x="36" y="436" width="78" height="78" as="geometry" />
        </mxCell>
        <mxCell id="dJZHMLapRTn88EUjOpeF-88" style="edgeStyle=orthogonalEdgeStyle;rounded=0;orthogonalLoop=1;jettySize=auto;html=1;entryX=0;entryY=0.5;entryDx=0;entryDy=0;entryPerimeter=0;" parent="dJZHMLapRTn88EUjOpeF-48" source="dJZHMLapRTn88EUjOpeF-12" target="dJZHMLapRTn88EUjOpeF-84" edge="1">
          <mxGeometry relative="1" as="geometry">
            <Array as="points">
              <mxPoint x="115" y="129" />
            </Array>
          </mxGeometry>
        </mxCell>
        <mxCell id="G4pOQ-Tjqg--1dSDqINS-1" value="" style="endArrow=classic;html=1;rounded=0;exitX=1;exitY=0.5;exitDx=0;exitDy=0;exitPerimeter=0;entryX=0;entryY=0.5;entryDx=0;entryDy=0;entryPerimeter=0;" parent="dJZHMLapRTn88EUjOpeF-48" source="dJZHMLapRTn88EUjOpeF-12" target="dJZHMLapRTn88EUjOpeF-36" edge="1">
          <mxGeometry width="50" height="50" relative="1" as="geometry">
            <mxPoint x="230" y="471" as="sourcePoint" />
            <mxPoint x="280" y="421" as="targetPoint" />
          </mxGeometry>
        </mxCell>
        <mxCell id="dJZHMLapRTn88EUjOpeF-71" style="edgeStyle=orthogonalEdgeStyle;rounded=0;orthogonalLoop=1;jettySize=auto;html=1;entryX=0;entryY=0.5;entryDx=0;entryDy=0;entryPerimeter=0;" parent="1" source="dJZHMLapRTn88EUjOpeF-15" target="dJZHMLapRTn88EUjOpeF-12" edge="1">
          <mxGeometry relative="1" as="geometry" />
        </mxCell>
        <mxCell id="dJZHMLapRTn88EUjOpeF-97" value="ECS Services" style="fillColor=none;strokeColor=#5A6C86;dashed=1;verticalAlign=top;fontStyle=0;fontColor=#5A6C86;whiteSpace=wrap;html=1;" parent="1" vertex="1">
          <mxGeometry x="1050" y="330" width="350" height="500" as="geometry" />
        </mxCell>
        <mxCell id="dJZHMLapRTn88EUjOpeF-98" value="Fargate" style="fillColor=none;strokeColor=#5A6C86;dashed=1;verticalAlign=top;fontStyle=0;fontColor=#5A6C86;whiteSpace=wrap;html=1;" parent="1" vertex="1">
          <mxGeometry x="1080" y="360" width="280" height="460" as="geometry" />
        </mxCell>
        <mxCell id="dJZHMLapRTn88EUjOpeF-99" value="" style="sketch=0;points=[[0,0,0],[0.25,0,0],[0.5,0,0],[0.75,0,0],[1,0,0],[0,1,0],[0.25,1,0],[0.5,1,0],[0.75,1,0],[1,1,0],[0,0.25,0],[0,0.5,0],[0,0.75,0],[1,0.25,0],[1,0.5,0],[1,0.75,0]];outlineConnect=0;fontColor=#232F3E;fillColor=#ED7100;strokeColor=#ffffff;dashed=0;verticalLabelPosition=bottom;verticalAlign=top;align=center;html=1;fontSize=12;fontStyle=0;aspect=fixed;shape=mxgraph.aws4.resourceIcon;resIcon=mxgraph.aws4.fargate;" parent="1" vertex="1">
          <mxGeometry x="1080" y="360" width="35" height="35" as="geometry" />
        </mxCell>
        <mxCell id="dJZHMLapRTn88EUjOpeF-100" value="Order-API" style="sketch=0;outlineConnect=0;fontColor=#232F3E;gradientColor=none;fillColor=#ED7100;strokeColor=none;dashed=0;verticalLabelPosition=bottom;verticalAlign=top;align=center;html=1;fontSize=12;fontStyle=0;aspect=fixed;pointerEvents=1;shape=mxgraph.aws4.ecs_task;" parent="1" vertex="1">
          <mxGeometry x="1204" y="540" width="37" height="48" as="geometry" />
        </mxCell>
        <mxCell id="dJZHMLapRTn88EUjOpeF-103" style="edgeStyle=orthogonalEdgeStyle;rounded=0;orthogonalLoop=1;jettySize=auto;html=1;" parent="1" source="dJZHMLapRTn88EUjOpeF-36" target="dJZHMLapRTn88EUjOpeF-100" edge="1">
          <mxGeometry relative="1" as="geometry" />
        </mxCell>
        <mxCell id="zrjuf5tbtKIcg7E3_-A5-10" style="edgeStyle=orthogonalEdgeStyle;rounded=0;orthogonalLoop=1;jettySize=auto;html=1;entryX=0;entryY=0.5;entryDx=0;entryDy=0;entryPerimeter=0;" edge="1" parent="1" source="dJZHMLapRTn88EUjOpeF-100" target="dJZHMLapRTn88EUjOpeF-112">
          <mxGeometry relative="1" as="geometry">
            <Array as="points">
              <mxPoint x="1365" y="564" />
              <mxPoint x="1365" y="209" />
            </Array>
          </mxGeometry>
        </mxCell>
        <mxCell id="zrjuf5tbtKIcg7E3_-A5-11" style="edgeStyle=orthogonalEdgeStyle;rounded=0;orthogonalLoop=1;jettySize=auto;html=1;entryX=0;entryY=0.5;entryDx=0;entryDy=0;entryPerimeter=0;" edge="1" parent="1" source="dJZHMLapRTn88EUjOpeF-100" target="zrjuf5tbtKIcg7E3_-A5-1">
          <mxGeometry relative="1" as="geometry">
            <Array as="points">
              <mxPoint x="1367" y="564" />
              <mxPoint x="1367" y="370" />
            </Array>
          </mxGeometry>
        </mxCell>
        <mxCell id="zrjuf5tbtKIcg7E3_-A5-12" style="edgeStyle=orthogonalEdgeStyle;rounded=0;orthogonalLoop=1;jettySize=auto;html=1;entryX=0;entryY=0.5;entryDx=0;entryDy=0;entryPerimeter=0;" edge="1" parent="1" source="dJZHMLapRTn88EUjOpeF-100" target="zrjuf5tbtKIcg7E3_-A5-6">
          <mxGeometry relative="1" as="geometry">
            <mxPoint x="1487" y="564" as="targetPoint" />
            <Array as="points" />
          </mxGeometry>
        </mxCell>
        <mxCell id="zrjuf5tbtKIcg7E3_-A5-17" value="All Status" style="edgeLabel;html=1;align=center;verticalAlign=middle;resizable=0;points=[];" vertex="1" connectable="0" parent="zrjuf5tbtKIcg7E3_-A5-12">
          <mxGeometry x="0.4921" y="-1" relative="1" as="geometry">
            <mxPoint x="5" y="-1" as="offset" />
          </mxGeometry>
        </mxCell>
        <mxCell id="zrjuf5tbtKIcg7E3_-A5-13" style="edgeStyle=orthogonalEdgeStyle;rounded=0;orthogonalLoop=1;jettySize=auto;html=1;entryX=0;entryY=0.5;entryDx=0;entryDy=0;entryPerimeter=0;" edge="1" parent="1" source="dJZHMLapRTn88EUjOpeF-100" target="G4pOQ-Tjqg--1dSDqINS-2">
          <mxGeometry relative="1" as="geometry" />
        </mxCell>
        <mxCell id="zrjuf5tbtKIcg7E3_-A5-15" value="Create&lt;br&gt;Cancel&lt;br&gt;Received&lt;br&gt;Ready" style="edgeLabel;html=1;align=center;verticalAlign=middle;resizable=0;points=[];" vertex="1" connectable="0" parent="zrjuf5tbtKIcg7E3_-A5-13">
          <mxGeometry x="0.7884" y="-3" relative="1" as="geometry">
            <mxPoint x="-18" y="-3" as="offset" />
          </mxGeometry>
        </mxCell>
        <mxCell id="zrjuf5tbtKIcg7E3_-A5-14" style="edgeStyle=orthogonalEdgeStyle;rounded=0;orthogonalLoop=1;jettySize=auto;html=1;entryX=0;entryY=0.5;entryDx=0;entryDy=0;entryPerimeter=0;" edge="1" parent="1" source="dJZHMLapRTn88EUjOpeF-100" target="zrjuf5tbtKIcg7E3_-A5-3">
          <mxGeometry relative="1" as="geometry" />
        </mxCell>
        <mxCell id="zrjuf5tbtKIcg7E3_-A5-16" value="Received" style="edgeLabel;html=1;align=center;verticalAlign=middle;resizable=0;points=[];" vertex="1" connectable="0" parent="zrjuf5tbtKIcg7E3_-A5-14">
          <mxGeometry x="0.7358" y="2" relative="1" as="geometry">
            <mxPoint x="13" y="2" as="offset" />
          </mxGeometry>
        </mxCell>
      </root>
    </mxGraphModel>
  </diagram>
</mxfile>
